<?xml version="1.0" encoding="UTF-8"?>
<svg id="Layer_1" data-name="Layer 1" xmlns="http://www.w3.org/2000/svg" viewBox="0 0 123.27 116.2">
  <defs>
    <style>
      .cls-1 {
        fill: #003564;
      }

      .cls-1, .cls-2 {
        fill-rule: evenodd;
      }

      .cls-2 {
        fill: #0089cf;
      }
    </style>
  </defs>
  <path class="cls-1" d="M33.58,110.02c2.65,1.33,5.3,2.21,8.39,3.09,6.19,1.77,12.81,2.65,19.88,3.09,7.07,0,13.7-.88,19.88-3.09,6.19-1.77,11.93-4.42,16.79-7.95s9.28-7.51,13.26-12.37c3.53-4.86,6.63-10.16,8.39-15.91,1.77-5.74,3.09-11.93,3.09-18.56s-.88-12.81-3.09-18.56c-2.21-5.74-4.86-11.05-8.39-15.91-3.09-3.98-6.19-7.07-10.16-10.16l-14.14,20.32c2.65,3.09,4.86,6.63,6.63,10.6,1.77,4.42,2.65,8.84,2.65,14.14,0,4.86-.88,9.72-2.65,14.14-1.77,4.42-4.42,7.95-7.51,11.49-3.09,3.09-6.63,5.74-11.05,7.51-3.98,1.77-8.84,2.65-13.26,2.65-4.86,0-9.28-.88-13.7-2.65l-.88-.44-14.14,18.56Z"/>
  <path class="cls-2" d="M61.42,0c-7.07,0-13.7.88-19.88,2.65-6.19,1.77-11.93,4.42-16.79,7.95s-9.28,7.51-13.26,12.37c-3.53,4.86-6.63,10.16-8.39,15.91-1.77,5.74-3.09,11.93-3.09,19,0,6.63.88,12.81,3.09,18.56,2.21,5.74,4.86,11.05,8.39,15.91,3.09,3.98,6.19,7.07,10.16,10.16l14.14-20.77c-2.65-3.09-5.3-6.63-6.63-10.6-1.77-4.42-2.65-8.84-2.65-14.14,0-4.86.88-9.72,2.65-14.14,1.77-4.42,4.42-7.95,7.51-11.05s7.07-5.74,11.05-7.51c4.42-1.77,8.84-2.65,13.7-2.65s9.28.88,13.26,2.65l.88.44,13.7-19.44c-2.65-1.33-5.3-2.21-8.39-3.09-5.74-1.33-12.37-2.21-19.44-2.21h0Z"/>
</svg>