<?xml version="1.0" encoding="UTF-8"?>
<svg id="Layer_1" data-name="Layer 1" xmlns="http://www.w3.org/2000/svg" viewBox="0 0 149.37 12.76">
  <defs>
    <style>
      .cls-1, .cls-2 {
        fill-rule: evenodd;
      }

      .cls-1, .cls-3 {
        fill: #003564;
      }

      .cls-2 {
        fill: #0089cf;
      }
    </style>
  </defs>
  <polygon class="cls-1" points="81.29 8.59 85.85 .1 82.98 .1 79.88 5.73 76.68 .1 73.81 .1 78.47 8.64 78.47 12.62 81.29 12.62 81.29 8.59"/>
  <path class="cls-1" d="M69.2,12.62h3.2l-2.67-4.12c1.5-.73,2.33-2.14,2.33-4.03,0-2.77-1.84-4.37-5.14-4.37h-5.44v12.52h2.81v-3.59h2.91l1.99,3.59h0ZM64.3,6.7V2.43h2.62c1.55,0,2.47.68,2.47,2.09s-.87,2.14-2.47,2.14h-2.62v.05Z"/>
  <polygon class="cls-1" points="58.19 2.43 58.19 .1 48.63 .1 48.63 12.62 58.38 12.62 58.38 10.29 51.44 10.29 51.44 7.52 57.51 7.52 57.51 5.14 51.44 5.14 51.44 2.43 58.19 2.43"/>
  <polygon class="cls-1" points="44.94 12.62 44.94 .1 42.27 .1 42.27 8.15 36.15 .1 33.58 .1 33.58 12.62 36.3 12.62 36.3 4.61 42.37 12.62 44.94 12.62"/>
  <rect class="cls-3" x="27.08" y=".1" width="2.81" height="12.52"/>
  <path class="cls-1" d="M14.51,12.08c.29.15.58.24.92.34.68.19,1.41.29,2.18.34.78,0,1.5-.1,2.18-.34.68-.19,1.31-.49,1.84-.87.58-.39,1.02-.82,1.46-1.36.39-.53.73-1.12.92-1.75.19-.63.34-1.31.34-2.04s-.1-1.41-.34-2.04c-.29-.68-.58-1.31-.97-1.8-.34-.44-.68-.78-1.12-1.12l-1.55,2.23c.29.34.53.73.73,1.16.19.49.29.97.29,1.55,0,.53-.1,1.07-.29,1.55-.19.49-.49.87-.82,1.26-.34.34-.73.63-1.21.82-.44.19-.97.29-1.46.29-.53,0-1.02-.1-1.5-.29l-.1-.05-1.5,2.09Z"/>
  <path class="cls-1" d="M5.44.1v8.44c0,1.07-.58,1.65-1.5,1.65-.78,0-1.8-.49-2.67-1.41l-1.26,2.04c1.07,1.21,2.43,1.94,4.08,1.94,2.57,0,4.22-1.5,4.22-4.12V.1h-2.86Z"/>
  <path class="cls-1" d="M111.62,12.08c.29.15.58.24.92.34.68.19,1.41.29,2.18.34.78,0,1.5-.1,2.18-.34.68-.19,1.31-.49,1.84-.87s1.02-.82,1.46-1.36c.39-.53.73-1.12.92-1.75.19-.63.34-1.31.34-2.04s-.1-1.41-.34-2.04c-.24-.63-.53-1.21-.92-1.75-.34-.44-.68-.78-1.12-1.12l-1.55,2.23c.29.34.53.73.73,1.16.19.49.29.97.29,1.55,0,.53-.1,1.07-.29,1.55-.19.49-.49.87-.82,1.26-.34.34-.73.63-1.21.82-.44.19-.97.29-1.46.29-.53,0-1.02-.1-1.5-.29l-.1-.05-1.55,2.04Z"/>
  <path class="cls-2" d="M144.86,6.11L149.03.1h-3.35l-2.62,3.83-2.62-3.83h-3.3l4.17,6.11-4.51,6.41h3.3l2.91-4.17,2.96,4.17h3.4l-4.51-6.5h0ZM17.57,0c-.78,0-1.5.1-2.18.29-.68.19-1.31.49-1.84.87-.53.39-1.02.82-1.46,1.36-.39.53-.73,1.12-.92,1.75-.19.63-.34,1.31-.34,2.09,0,.73.1,1.41.34,2.04s.53,1.21.92,1.75c.34.44.68.78,1.12,1.12l1.55-2.28c-.29-.34-.58-.73-.73-1.16-.19-.49-.29-.97-.29-1.55,0-.53.1-1.07.29-1.55s.49-.87.82-1.21.78-.63,1.21-.82c.49-.19.97-.29,1.5-.29s1.02.1,1.46.29l.1.05,1.5-2.14c-.29-.15-.58-.24-.92-.34-.63-.15-1.36-.24-2.14-.24h0ZM102.59,12.62L106.76.1h-2.91l-2.62,9.46L98.56.1h-2.77l-2.62,9.46L90.55.1h-3.06l4.12,12.52h2.91l2.57-8.93,2.52,8.93h2.96ZM114.67,0c-.78,0-1.5.1-2.18.29s-1.31.49-1.84.87-1.02.82-1.46,1.36c-.39.53-.73,1.12-.92,1.75-.19.63-.34,1.31-.34,2.09,0,.73.1,1.41.34,2.04s.53,1.21.92,1.75c.34.44.68.78,1.12,1.12l1.55-2.28c-.29-.34-.58-.73-.73-1.16-.19-.49-.29-.97-.29-1.55,0-.53.1-1.07.29-1.55.19-.49.49-.87.82-1.21s.78-.63,1.21-.82c.49-.19.97-.29,1.5-.29s1.02.1,1.46.29l.1.05,1.5-2.14c-.29-.15-.58-.24-.92-.34-.63-.15-1.36-.24-2.14-.24h0ZM127,6.7V2.43h2.62c1.55,0,2.47.68,2.47,2.09s-.87,2.14-2.47,2.14h-2.62v.05ZM131.9,12.62h3.2l-2.67-4.12c1.5-.73,2.33-2.14,2.33-4.03,0-2.77-1.84-4.37-5.14-4.37h-5.44v12.52h2.81v-3.59h2.91l1.99,3.59Z"/>
</svg>